<?xml version="1.0" encoding="UTF-8" standalone="no"?>
<!DOCTYPE svg PUBLIC "-//W3C//DTD SVG 1.1//EN" "http://www.w3.org/Graphics/SVG/1.1/DTD/svg11.dtd">
<svg width="100%" height="100%" viewBox="0 0 250 250" version="1.1" xmlns="http://www.w3.org/2000/svg" xmlns:xlink="http://www.w3.org/1999/xlink" xml:space="preserve" xmlns:serif="http://www.serif.com/" style="fill-rule:evenodd;clip-rule:evenodd;stroke-linejoin:round;stroke-miterlimit:2;">
    <rect x="16" y="90" width="218" height="145" style="fill:rgb(205,180,139);"/>
    <path d="M214,41L34,41L16,90L234,90L214,41Z" style="fill:rgb(195,168,130);"/>
    <g transform="matrix(5.66673,0,0,5.66673,-398.961,-913.621)">
        <path d="M78.169,193.72L78.169,192.496L78.989,192.496L78.989,191.048L80.559,191.048L80.559,192.496L81.86,192.496L81.86,193.72L80.559,193.72L80.559,197.06C80.559,197.173 80.598,197.269 80.677,197.347C80.756,197.425 80.852,197.464 80.966,197.464L81.585,197.464L81.585,198.689L80.635,198.689C80.178,198.689 79.79,198.531 79.469,198.214C79.149,197.898 78.989,197.513 78.989,197.06L78.989,193.72L78.169,193.72Z" style="fill:rgb(100,81,48);fill-rule:nonzero;"/>
        <path d="M82.575,197.265L82.575,196.375C82.575,195.996 82.706,195.673 82.967,195.408C83.229,195.142 83.549,195.009 83.928,195.009L86.114,195.009L86.114,194.119C86.114,194.005 86.074,193.909 85.994,193.829C85.914,193.749 85.817,193.709 85.704,193.709L84.544,193.709C84.469,193.709 84.406,193.735 84.353,193.787C84.3,193.838 84.274,193.903 84.274,193.98L84.274,194.113L82.838,194.113L82.838,193.85C82.838,193.473 82.971,193.151 83.237,192.884C83.503,192.617 83.825,192.484 84.204,192.484L86.044,192.484C86.501,192.484 86.888,192.643 87.207,192.961C87.525,193.28 87.684,193.666 87.684,194.119L87.684,198.63L86.114,198.63L86.114,198.208L85.774,198.437C85.575,198.566 85.372,198.63 85.165,198.63L83.928,198.63C83.549,198.63 83.229,198.498 82.967,198.232C82.706,197.966 82.575,197.644 82.575,197.265ZM83.999,197.236C83.999,197.314 84.025,197.38 84.078,197.435C84.13,197.49 84.196,197.517 84.274,197.517L85.838,197.517C85.917,197.517 85.982,197.49 86.035,197.435C86.088,197.38 86.114,197.314 86.114,197.236L86.114,196.099L84.274,196.099C84.196,196.099 84.13,196.126 84.078,196.178C84.025,196.231 83.999,196.296 83.999,196.375L83.999,197.236Z" style="fill:rgb(100,81,48);fill-rule:nonzero;"/>
        <path d="M88.762,198.63L88.762,192.484L90.333,192.484L90.333,192.894L90.672,192.666C90.86,192.544 91.059,192.484 91.27,192.484L92.172,192.484L92.172,193.709L90.743,193.709C90.63,193.709 90.533,193.751 90.453,193.835C90.373,193.919 90.333,194.017 90.333,194.13L90.333,198.63L88.762,198.63Z" style="fill:rgb(100,81,48);fill-rule:nonzero;"/>
        <rect x="92.829" y="197.13" width="1.775" height="1.5" style="fill:rgb(100,81,48);fill-rule:nonzero;"/>
        <path d="M95.671,196.984L95.671,194.119C95.671,193.666 95.83,193.28 96.148,192.961C96.466,192.643 96.85,192.484 97.299,192.484L98.477,192.484C98.692,192.484 98.893,192.544 99.081,192.666L99.426,192.894L99.426,192.484L100.997,192.484L100.997,199.041C100.997,199.494 100.838,199.878 100.519,200.195C100.201,200.511 99.817,200.669 99.368,200.669L96.139,200.669L96.139,199.445L99.006,199.445C99.115,199.453 99.211,199.42 99.295,199.348C99.379,199.276 99.422,199.185 99.426,199.076L99.426,198.209L99.081,198.437C98.893,198.558 98.692,198.619 98.477,198.619L97.299,198.619C96.85,198.619 96.466,198.46 96.148,198.141C95.83,197.823 95.671,197.437 95.671,196.984ZM97.241,196.984C97.241,197.097 97.281,197.194 97.361,197.274C97.441,197.354 97.538,197.394 97.651,197.394L99.005,197.394C99.118,197.394 99.216,197.354 99.3,197.274C99.384,197.194 99.426,197.097 99.426,196.984L99.426,194.119C99.426,194.009 99.384,193.914 99.3,193.832C99.216,193.75 99.118,193.709 99.005,193.709L97.651,193.709C97.538,193.709 97.441,193.75 97.361,193.832C97.281,193.914 97.241,194.009 97.241,194.119L97.241,196.984Z" style="fill:rgb(100,81,48);fill-rule:nonzero;"/>
        <path d="M101.881,198.63L101.881,197.646L104.811,193.72L102.063,193.72L102.063,192.496L106.663,192.496L106.663,193.48L103.71,197.406L106.756,197.406L106.756,198.63L101.881,198.63Z" style="fill:rgb(100,81,48);fill-rule:nonzero;"/>
    </g>
    <g transform="matrix(1,0,0,0.369231,0,71.9077)">
        <rect x="114" y="49" width="22" height="65" style="fill:rgb(225,209,185);"/>
    </g>
    <g transform="matrix(1,0,0,0.630769,0,18.0923)">
        <rect x="114" y="49" width="22" height="65" style="fill:rgb(215,197,171);"/>
    </g>
</svg>
