<?xml version="1.0" encoding="UTF-8" standalone="no"?>
<!DOCTYPE svg PUBLIC "-//W3C//DTD SVG 1.1//EN" "http://www.w3.org/Graphics/SVG/1.1/DTD/svg11.dtd">
<svg width="100%" height="100%" viewBox="0 0 220 230" version="1.1" xmlns="http://www.w3.org/2000/svg" xmlns:xlink="http://www.w3.org/1999/xlink" xml:space="preserve" xmlns:serif="http://www.serif.com/" style="fill-rule:evenodd;clip-rule:evenodd;stroke-linejoin:round;stroke-miterlimit:2;">
    <path d="M59,31.971L59,47.942L85.328,48.5L90.694,64.5C93.645,73.3 95.888,81.175 95.678,82C95.468,82.825 77.43,111.175 55.595,145L15.895,206.5L34.667,206.773C44.991,206.923 53.929,206.858 54.528,206.628C55.127,206.398 68.415,187.306 84.058,164.201C109.723,126.293 112.607,122.402 113.597,124.346C114.2,125.531 122.724,146.863 132.539,171.75C142.788,197.738 150.916,217 151.633,217C152.887,217 209.01,199.323 209.587,198.746C209.934,198.399 201.284,170.951 200.617,170.284C200.381,170.048 194.357,171.688 187.231,173.927C180.104,176.167 174.024,178 173.719,178C173.296,178 138.454,91.125 111.255,22.25L108.787,16L59,16L59,31.971" style="fill:rgb(12,204,243);"/>
</svg>
