<svg width="43" height="54" viewBox="0 0 43 54" fill="none" xmlns="http://www.w3.org/2000/svg">
<path d="M42.8333 43C42.8333 48.8909 33.2821 53.6667 21.5 53.6667C9.71792 53.6667 0.166672 48.8909 0.166672 43V32.264C1.5059 33.9083 3.40654 35.2744 5.52064 36.3312C9.71344 38.4277 15.3658 39.6667 21.5 39.6667C27.6341 39.6667 33.2867 38.4277 37.4795 36.3312C39.5936 35.2744 41.4941 33.9083 42.8333 32.264V43Z" fill="#1C274C"/>
<path d="M21.5 23.6667C27.6341 23.6667 33.2867 22.4277 37.4795 20.3313C39.5936 19.2743 41.4941 17.9082 42.8333 16.2639V27C42.8333 28.3333 38.0715 31.2429 35.6904 32.7536C32.1621 34.5179 27.148 35.6667 21.5 35.6667C15.8521 35.6667 10.8378 34.5179 7.3095 32.7536C4.16667 31.1821 0.166672 28.3333 0.166672 27V16.2639C1.5059 17.9082 3.40654 19.2743 5.52064 20.3313C9.71344 22.4277 15.3658 23.6667 21.5 23.6667Z" fill="#1C274C"/>
<path d="M35.6904 16.7536C32.1621 18.5178 27.148 19.6667 21.5 19.6667C15.8521 19.6667 10.8378 18.5178 7.30949 16.7536C5.9369 16.2159 2.85031 14.5065 0.703994 11.7449C0.338768 11.275 0.182021 10.6761 0.273007 10.088C0.334207 9.69252 0.419461 9.28521 0.528741 9.0327C2.37506 4.08145 11.0621 0.333344 21.5 0.333344C31.9379 0.333344 40.6248 4.08145 42.4712 9.0327C42.5805 9.28521 42.6659 9.69252 42.7269 10.088C42.8179 10.6761 42.6613 11.275 42.296 11.7449C40.1496 14.5065 37.0632 16.2159 35.6904 16.7536Z" fill="#1C274C"/>
</svg>
