<svg width="61" height="60" viewBox="0 0 61 60" fill="none" xmlns="http://www.w3.org/2000/svg">
<path d="M23.274 58.916C22.826 58.722 22.458 58.532 22.102 58.32L22.15 58.346C20.196 57.28 18.52 56.004 17.06 54.516L17.056 54.512C14.45 51.726 12.502 48.292 11.478 44.482L11.44 44.316C10.79 41.982 10.348 39.27 10.206 36.478L10.202 36.388C10.162 35.81 10.14 35.134 10.14 34.454C10.14 33.302 10.204 32.166 10.33 31.048L10.318 31.186C10.644 27.856 11.646 24.818 13.186 22.128L13.128 22.238C14.292 20.21 15.782 18.506 17.546 17.136L17.584 17.106C18.756 16.2 20.106 15.44 21.558 14.892L21.666 14.856C23.024 14.348 24.592 14.056 26.228 14.056C27.744 14.056 29.202 14.308 30.562 14.772L30.468 14.744C30.54 14.744 30.54 14.744 30.58 14.818C30.618 14.856 30.692 14.856 30.73 14.892C30.842 14.932 30.99 15.004 31.142 15.076C31.832 15.436 32.408 15.784 32.96 16.164L32.9 16.126C35.152 17.716 36.936 19.824 38.1 22.284L38.14 22.38C39.122 24.54 39.702 27.062 39.718 29.718V29.724C39.722 29.854 39.724 30.006 39.724 30.16C39.724 32.852 39.128 35.406 38.06 37.696L38.106 37.586C36.654 40.596 34.386 43.018 31.592 44.622L31.514 44.664C31.738 44.74 31.964 44.776 32.192 44.852C32.706 44.964 33.3 45.032 33.908 45.036H33.912C37.758 44.998 41.232 43.434 43.76 40.92C44.244 40.472 44.686 39.994 45.09 39.484L45.11 39.458C45.632 38.848 46.138 38.178 46.598 37.476L46.644 37.402C47.172 36.586 47.684 35.64 48.124 34.654L48.178 34.518C48.704 33.328 49.144 31.936 49.428 30.488L49.45 30.36C49.744 28.786 49.914 26.976 49.914 25.126C49.914 24.306 49.88 23.494 49.816 22.692L49.822 22.798C49.594 17.448 47.908 12.532 45.154 8.38799L45.218 8.49199C44.744 7.81199 44.288 7.22599 43.806 6.66399L43.832 6.694C43.008 5.764 42.14 4.918 41.214 4.14L41.176 4.11C40.178 3.284 39.064 2.526 37.88 1.878L37.77 1.822C36.58 1.258 35.174 0.747996 33.714 0.365996L33.542 0.327996L32.792 0.177996C32.27 0.103996 31.742 0.0679958 31.208 0.0279958C30.928 0.0139958 30.602 0.00799561 30.272 0.00799561C29.708 0.00799561 29.15 0.0299956 28.598 0.0739956L28.672 0.0699956C26.732 0.201996 24.93 0.501996 23.19 0.957996L23.392 0.911996C14.77 3.22 7.784 8.946 3.84 16.51L3.76 16.68C1.76 20.566 0.585999 25.16 0.585999 30.03C0.585999 31.41 0.679999 32.766 0.861999 34.096L0.843999 33.942C1.166 36.7 1.852 39.214 2.856 41.56L2.788 41.382C3.44 42.984 4.132 44.338 4.922 45.626L4.85 45.5C7.662 49.952 11.466 53.54 15.964 56.018L16.12 56.098C17.65 56.968 19.432 57.766 21.292 58.394L21.512 58.458C22.076 58.642 22.636 58.832 23.234 58.982L23.274 58.916ZM30.608 59.912C31.866 59.91 33.104 59.824 34.316 59.662L34.172 59.678C37.098 59.29 39.75 58.534 42.224 57.446L42.034 57.52C45.708 55.92 48.848 53.782 51.518 51.162L51.514 51.166C53.978 48.75 56.022 45.916 57.534 42.78L57.612 42.6C58.83 40.076 59.726 37.146 60.144 34.066L60.162 33.914C60.324 32.72 60.416 31.34 60.416 29.938C60.416 28.254 60.282 26.602 60.026 24.992L60.05 25.17C59.632 22.556 58.942 20.214 57.994 18.008L58.068 18.202C57.392 16.636 56.68 15.308 55.868 14.05L55.934 14.16C52.938 9.578 48.876 5.924 44.086 3.494L43.912 3.414C42.382 2.61 40.582 1.872 38.71 1.3L38.482 1.24H38.47C38.768 1.398 39.07 1.57 39.332 1.742C39.632 1.926 39.93 2.106 40.21 2.304C41.676 3.296 42.954 4.392 44.094 5.614L44.106 5.628C46.644 8.408 48.56 11.8 49.608 15.554L49.65 15.726C50.3 17.946 50.742 20.524 50.884 23.18L50.888 23.266C50.936 23.906 50.962 24.654 50.962 25.406C50.962 26.614 50.892 27.808 50.756 28.98L50.77 28.838C50.388 32.204 49.296 35.252 47.646 37.92L47.7 37.826C46.428 39.88 44.844 41.608 42.992 43L42.944 43.034C40.62 44.914 37.628 46.05 34.37 46.05C33.482 46.05 32.612 45.966 31.772 45.804L31.858 45.818C31.142 45.648 30.52 45.426 29.928 45.148L29.988 45.174C29.242 44.83 28.604 44.456 28.006 44.026L28.04 44.05C26.856 43.252 25.834 42.34 24.948 41.308L24.932 41.288C23.878 40.038 22.994 38.596 22.35 37.03L22.31 36.922C21.562 35.042 21.112 32.866 21.076 30.59V30.574C21.068 30.366 21.062 30.12 21.062 29.874C21.062 26.768 21.858 23.85 23.256 21.31L23.21 21.402C24.296 19.508 25.686 17.916 27.33 16.636L27.366 16.608C27.876 16.21 28.45 15.814 29.048 15.454L29.126 15.41L29.166 15.392C28.308 15.188 27.324 15.07 26.314 15.07C26.05 15.07 25.79 15.078 25.53 15.094L25.566 15.092C24.444 15.168 23.398 15.382 22.41 15.718L22.498 15.692C21.518 16.018 20.676 16.398 19.882 16.854L19.952 16.818C19.252 17.222 18.654 17.63 18.088 18.078L18.12 18.054C17.592 18.504 17.07 18.954 16.582 19.442C13.938 22.284 12.122 25.93 11.54 29.974L11.528 30.08C11.32 31.508 11.202 33.156 11.202 34.832C11.202 35.754 11.238 36.668 11.308 37.572L11.3 37.452C11.536 41.168 12.382 44.624 13.74 47.81L13.662 47.604C14.564 49.684 15.694 51.476 17.056 53.064L17.032 53.036C19.128 55.448 21.75 57.346 24.724 58.56L24.86 58.61C26.398 59.258 28.184 59.734 30.048 59.95L30.14 59.958C30.274 59.982 30.43 59.996 30.588 59.996C30.614 59.996 30.64 59.996 30.666 59.994H30.662L30.608 59.912Z" fill="black"/>
</svg>
