<svg width="65" height="64" viewBox="0 0 65 64" fill="none" xmlns="http://www.w3.org/2000/svg">
<path fill-rule="evenodd" clip-rule="evenodd" d="M64.3248 0.0625C57.5265 1.00825 51.1048 1.90162 45.0708 2.74237C39.3679 3.53612 35.0684 4.29087 29.9451 5.00413C29.9451 9.29913 29.9451 13.5871 29.9451 17.8709C29.9451 22.1541 29.9451 26.4374 29.9451 30.7213C35.0684 30.6911 39.3679 30.6594 45.077 30.625C51.111 30.5896 57.5266 30.5522 64.3248 30.5116C64.3248 25.4393 64.3248 20.3685 64.3248 15.2966C64.3248 10.2251 64.3248 5.14712 64.3248 0.0625ZM26.9915 5.41612C22.2685 6.07425 16.6504 6.7 12.3743 7.29612C8.29376 7.86412 4.39826 8.40763 0.675262 8.92712C0.675262 12.5934 0.675262 16.2563 0.675262 19.9137C0.675262 23.5723 0.675262 27.2296 0.675262 30.888C4.39189 30.8663 8.29364 30.8429 12.3743 30.8184C16.6503 30.7934 22.2623 30.7664 26.9915 30.7383C26.9915 26.521 26.9915 22.3032 26.9915 18.0854C26.9915 13.8675 26.9915 9.6445 26.9915 5.41612ZM0.675262 33.0485C0.675262 36.7118 0.675262 40.369 0.675262 44.0275C0.675262 47.686 0.675262 51.3434 0.675262 54.9967C4.39189 55.5197 8.28739 56.0675 12.3675 56.6404C16.6445 57.2412 22.2621 57.8727 26.9914 58.5371C26.9914 54.3246 26.9914 50.1069 26.9914 45.8889C26.9914 41.6717 26.9914 37.4534 26.9914 33.2304C22.2621 33.196 16.6503 33.1632 12.3741 33.1326C8.28751 33.1036 4.39201 33.0755 0.675262 33.0485ZM29.9451 58.9525C35.0684 59.6724 39.3679 60.4324 45.077 61.2345C51.111 62.0823 57.5266 62.9836 64.3248 63.9375C64.3248 58.8724 64.3248 53.8005 64.3248 48.7293C64.3248 43.6569 64.3248 38.586 64.3248 33.5079C57.5265 33.459 51.111 33.4118 45.077 33.3686C39.3679 33.3276 35.0685 33.2885 29.9451 33.2513C29.9451 37.5397 29.9451 41.8235 29.9451 46.1082C29.9451 50.3906 29.9451 54.6739 29.9451 58.9525Z" fill="black"/>
</svg>
