<svg width="65" height="57" viewBox="0 0 65 57" fill="none" xmlns="http://www.w3.org/2000/svg">
<path d="M64.5 14.3853H0.5V56.9541H64.5V14.3853Z" fill="#CDB48B"/>
<path fill-rule="evenodd" clip-rule="evenodd" d="M58.6284 0H5.7844L0.5 14.3853H64.5L58.6284 0Z" fill="#C3A882"/>
<path d="M15.1667 44.553V43.0781H16.1547V41.3333H18.0465V43.0781H19.6142V44.553H18.0465V48.5775C18.0465 48.7137 18.0935 48.8294 18.1887 48.9233C18.2839 49.0173 18.3996 49.0643 18.5369 49.0643H19.2828V50.5404H18.1381C17.5874 50.5404 17.1199 50.35 16.7331 49.968C16.3475 49.5873 16.1547 49.1234 16.1547 48.5775V44.553H15.1667Z" fill="#645130"/>
<path d="M20.4757 48.8245V47.7521C20.4757 47.2955 20.6335 46.9063 20.948 46.587C21.2637 46.2664 21.6493 46.1062 22.106 46.1062H24.74V45.0338C24.74 44.8964 24.6918 44.7807 24.5954 44.6843C24.499 44.5879 24.3821 44.5397 24.246 44.5397H22.8482C22.7579 44.5397 22.6819 44.5711 22.6181 44.6337C22.5542 44.6952 22.5229 44.7735 22.5229 44.8663V45.0265H20.7926V44.7096C20.7926 44.2554 20.9528 43.8674 21.2733 43.5457C21.5939 43.2239 21.9819 43.0637 22.4385 43.0637H24.6557C25.2063 43.0637 25.6726 43.2553 26.057 43.6384C26.4402 44.0228 26.6318 44.4879 26.6318 45.0338V50.4693H24.74V49.9608L24.3303 50.2368C24.0905 50.3922 23.8459 50.4693 23.5965 50.4693H22.106C21.6493 50.4693 21.2637 50.3103 20.948 49.9897C20.6335 49.6692 20.4757 49.2812 20.4757 48.8245ZM22.1915 48.7896C22.1915 48.8836 22.2229 48.9631 22.2867 49.0294C22.3494 49.0957 22.4289 49.1282 22.5229 49.1282H24.4074C24.5026 49.1282 24.581 49.0957 24.6448 49.0294C24.7087 48.9631 24.74 48.8836 24.74 48.7896V47.4196H22.5229C22.4289 47.4196 22.3494 47.4521 22.2867 47.5148C22.2229 47.5786 22.1915 47.657 22.1915 47.7521V48.7896Z" fill="#645130"/>
<path d="M27.9306 50.4693V43.0637H29.8236V43.5577L30.232 43.283C30.4586 43.136 30.6984 43.0637 30.9526 43.0637H32.0395V44.5397H30.3176C30.1814 44.5397 30.0646 44.5904 29.9682 44.6916C29.8718 44.7928 29.8236 44.9109 29.8236 45.047V50.4693H27.9306Z" fill="#645130"/>
<path d="M34.9699 48.6619H32.8311V50.4693H34.9699V48.6619Z" fill="#645130"/>
<path d="M36.2556 48.486V45.0338C36.2556 44.4879 36.4472 44.0228 36.8304 43.6384C37.2136 43.2553 37.6763 43.0637 38.2173 43.0637H39.6367C39.8958 43.0637 40.138 43.136 40.3645 43.283L40.7802 43.5577V43.0637H42.6732V50.9646C42.6732 51.5104 42.4816 51.9731 42.0972 52.3551C41.7141 52.7358 41.2514 52.9262 40.7103 52.9262H36.8195V51.4514H40.2741C40.4055 51.461 40.5212 51.4212 40.6224 51.3345C40.7236 51.2477 40.7754 51.1381 40.7802 51.0067V49.962L40.3645 50.2368C40.138 50.3826 39.8958 50.4561 39.6367 50.4561H38.2173C37.6763 50.4561 37.2136 50.2645 36.8304 49.8801C36.4472 49.4969 36.2556 49.0318 36.2556 48.486ZM38.1474 48.486C38.1474 48.6221 38.1956 48.739 38.292 48.8354C38.3884 48.9318 38.5053 48.98 38.6414 48.98H40.2729C40.4091 48.98 40.5272 48.9318 40.6284 48.8354C40.7296 48.739 40.7802 48.6221 40.7802 48.486V45.0338C40.7802 44.9012 40.7296 44.7868 40.6284 44.6879C40.5272 44.5891 40.4091 44.5397 40.2729 44.5397H38.6414C38.5053 44.5397 38.3884 44.5891 38.292 44.6879C38.1956 44.7868 38.1474 44.9012 38.1474 45.0338V48.486Z" fill="#645130"/>
<path d="M43.7384 50.4693V49.2836L47.2689 44.553H43.9577V43.0781H49.5005V44.2638L45.9422 48.9945H49.6125V50.4693H43.7384Z" fill="#645130"/>
<path d="M35.7294 14.3853H29.2707V21.4312H35.7294V14.3853Z" fill="#E1D1B9"/>
<path d="M35.7294 2.34863H29.2707V14.3853H35.7294V2.34863Z" fill="#D7C5AB"/>
</svg>
