<svg width="65" height="64" viewBox="0 0 65 64" fill="none" xmlns="http://www.w3.org/2000/svg">
<path d="M54.6868 28.5867L49.5667 33.7068L30.7932 14.9333L35.9132 9.8133C38.4733 7.25318 47.86 2.98655 54.6868 9.8133C61.5134 16.64 57.2468 26.0266 54.6868 28.5867Z" fill="#2F88FF"/>
<path fill-rule="evenodd" clip-rule="evenodd" d="M50.4719 34.6119L55.5919 29.4918C58.3987 26.6848 63.0768 16.3932 55.5919 8.90818C48.1069 1.4231 37.815 6.10118 35.0081 8.90818L29.8881 14.0282C29.3883 14.5281 29.3883 15.3385 29.8881 15.8385L48.6616 34.6119C49.1615 35.1118 49.972 35.1118 50.4719 34.6119ZM53.7817 27.6817L49.5668 31.8966C49.5668 31.8966 36.2366 18.5665 32.6035 14.9333L36.8184 10.7184C39.1316 8.40509 47.6132 4.54991 53.7817 10.7184C59.9501 16.8868 56.0948 25.3684 53.7817 27.6817Z" fill="black"/>
<path fill-rule="evenodd" clip-rule="evenodd" d="M62.315 0.374602L53.7817 8.90796C53.2822 9.40757 53.2822 10.2187 53.7817 10.7182C54.2812 11.2177 55.0923 11.2177 55.5919 10.7182L64.1253 2.18484C64.6248 1.68533 64.6248 0.874113 64.1253 0.374602C63.6257 -0.124908 62.8145 -0.124908 62.315 0.374602Z" fill="black"/>
<path d="M10.3131 35.4132L15.4331 30.2931L34.2066 49.0665L29.0866 54.1866C26.5266 56.7468 17.1398 61.0134 10.3131 54.1866C3.48645 47.3598 7.75307 37.9733 10.3131 35.4132Z" fill="#2F88FF"/>
<path fill-rule="evenodd" clip-rule="evenodd" d="M14.528 29.388L9.40797 34.508C6.60117 37.315 1.9231 47.6067 9.40797 55.0917C16.893 62.5769 27.1848 57.8987 29.9917 55.0917L35.1118 49.9717C35.6116 49.4717 35.6116 48.6613 35.1118 48.1614L16.3382 29.388C15.8384 28.8881 15.0279 28.8881 14.528 29.388ZM11.2182 36.3182L15.4331 32.1033L32.3964 49.0665L28.1815 53.2815C25.8683 55.5948 17.3867 59.4501 11.2182 53.2815C5.0498 47.113 8.90508 38.6315 11.2182 36.3182Z" fill="black"/>
<path fill-rule="evenodd" clip-rule="evenodd" d="M31.6983 46.5926L38.5251 39.7659C39.0246 39.2663 39.0246 38.4552 38.5251 37.9557C38.0256 37.4562 37.2144 37.4562 36.7149 37.9557L29.8881 44.7823C29.3886 45.2819 29.3886 46.0931 29.8881 46.5926C30.3877 47.0921 31.1988 47.0921 31.6983 46.5926Z" fill="black"/>
<path fill-rule="evenodd" clip-rule="evenodd" d="M2.68486 63.6252L11.2182 55.0919C11.7177 54.5923 11.7177 53.7812 11.2182 53.2816C10.7187 52.7821 9.90759 52.7821 9.40797 53.2816L0.874618 61.815C0.375107 62.3145 0.375107 63.1257 0.874618 63.6252C1.37413 64.1247 2.18535 64.1247 2.68486 63.6252Z" fill="black"/>
<path fill-rule="evenodd" clip-rule="evenodd" d="M19.7858 34.6119L26.6124 27.7852C27.1119 27.2857 27.1119 26.4745 26.6124 25.9749C26.1129 25.4754 25.3018 25.4754 24.8022 25.9749L17.9756 32.8017C17.476 33.3012 17.476 34.1123 17.9756 34.6119C18.4751 35.1114 19.2862 35.1114 19.7858 34.6119Z" fill="black"/>
</svg>
