<svg width="123" height="129" viewBox="0 0 123 129" fill="none" xmlns="http://www.w3.org/2000/svg">
<g id="logo">
<path id="Vector" fill-rule="evenodd" clip-rule="evenodd" d="M33.3348 18.2926V27.1808L47.9869 27.4913L50.9732 36.3957C52.6155 41.2931 53.8638 45.6757 53.7469 46.1348C53.63 46.5939 43.5915 62.3713 31.4398 81.1957L9.34592 115.422L19.7929 115.574C25.5385 115.657 30.5127 115.621 30.846 115.493C31.1794 115.365 38.5744 104.74 47.2801 91.8814C61.5632 70.7848 63.1682 68.6194 63.7192 69.7013C64.0548 70.3607 68.7986 82.2325 74.2608 96.0826C79.9646 110.546 84.488 121.265 84.8871 121.265C85.5849 121.265 116.819 111.428 117.14 111.106C117.333 110.913 112.519 95.638 112.148 95.2668C112.016 95.1354 108.664 96.0481 104.698 97.2942C100.732 98.5408 97.3481 99.5609 97.1784 99.5609C96.943 99.5609 77.5527 51.2131 62.4158 12.8826L61.0423 9.40436H33.3348V18.2926Z" fill="#0CCCF3"/>
</g>
</svg>
